<?xml version="1.0" encoding="UTF-8"?> <svg xmlns="http://www.w3.org/2000/svg" width="200" height="200" viewBox="0 0 200 200" fill="none"> <path d="M100 0C127.17 0 130.56 0.0999994 141.22 0.599999C151.87 1.1 159.12 2.77 165.5 5.25C172.1 7.79 177.66 11.23 183.22 16.78C188.305 21.779 192.24 27.8259 194.75 34.5C197.22 40.87 198.9 48.13 199.4 58.78C199.87 69.44 200 72.83 200 100C200 127.17 199.9 130.56 199.4 141.22C198.9 151.87 197.22 159.12 194.75 165.5C192.247 172.178 188.311 178.226 183.22 183.22C178.22 188.303 172.173 192.238 165.5 194.75C159.13 197.22 151.87 198.9 141.22 199.4C130.56 199.87 127.17 200 100 200C72.83 200 69.44 199.9 58.78 199.4C48.13 198.9 40.88 197.22 34.5 194.75C27.8233 192.245 21.7753 188.309 16.78 183.22C11.6941 178.222 7.75931 172.175 5.25 165.5C2.77 159.13 1.1 151.87 0.599999 141.22C0.129999 130.56 0 127.17 0 100C0 72.83 0.0999994 69.44 0.599999 58.78C1.1 48.12 2.77 40.88 5.25 34.5C7.75236 27.8218 11.688 21.7732 16.78 16.78C21.7767 11.6923 27.8243 7.75729 34.5 5.25C40.88 2.77 48.12 1.1 58.78 0.599999C69.44 0.129999 72.83 0 100 0ZM100 50C86.7392 50 74.0215 55.2678 64.6447 64.6447C55.2678 74.0215 50 86.7392 50 100C50 113.261 55.2678 125.979 64.6447 135.355C74.0215 144.732 86.7392 150 100 150C113.261 150 125.979 144.732 135.355 135.355C144.732 125.979 150 113.261 150 100C150 86.7392 144.732 74.0215 135.355 64.6447C125.979 55.2678 113.261 50 100 50ZM165 47.5C165 44.1848 163.683 41.0054 161.339 38.6612C158.995 36.317 155.815 35 152.5 35C149.185 35 146.005 36.317 143.661 38.6612C141.317 41.0054 140 44.1848 140 47.5C140 50.8152 141.317 53.9946 143.661 56.3388C146.005 58.683 149.185 60 152.5 60C155.815 60 158.995 58.683 161.339 56.3388C163.683 53.9946 165 50.8152 165 47.5ZM100 70C107.956 70 115.587 73.1607 121.213 78.7868C126.839 84.4129 130 92.0435 130 100C130 107.956 126.839 115.587 121.213 121.213C115.587 126.839 107.956 130 100 130C92.0435 130 84.4129 126.839 78.7868 121.213C73.1607 115.587 70 107.956 70 100C70 92.0435 73.1607 84.4129 78.7868 78.7868C84.4129 73.1607 92.0435 70 100 70Z" fill="black"></path> </svg> 