<?xml version="1.0" encoding="UTF-8"?> <svg xmlns="http://www.w3.org/2000/svg" width="176" height="196" viewBox="0 0 176 196" fill="none"> <path d="M49.7706 6.88672C49.7706 6.88672 46.8306 0 42.3404 0C37.9215 0 35.623 2.04018 34.0906 3.44782C32.5582 4.85545 6.91784 25.9254 6.91784 25.9254C6.91784 25.9254 -0.539074 32.438 0.0311079 44.688C0.512199 56.9379 2.90875 74.373 15.3458 98.6592C27.6939 122.892 58.5995 159.918 78.1283 172.934C78.1283 172.934 96.2226 186.815 113.061 192.454C117.952 193.995 127.734 196 130.015 196C132.331 196 136.421 196 141.116 192.57C145.891 189.104 172.681 167.562 172.681 167.562C172.681 167.562 179.238 161.637 171.62 154.751C163.967 147.864 140.733 132.549 135.761 128.522C130.781 124.433 123.689 126.233 120.625 129.004C117.569 131.792 112.108 136.38 111.439 136.959C110.442 137.725 107.706 140.211 104.642 138.973C100.74 137.432 84.7388 128.745 69.9052 108.45C55.1606 88.1732 53.5392 81.5448 51.3386 74.3819C50.9654 73.323 50.9603 72.1692 51.324 71.107C51.6878 70.0449 52.3992 69.1364 53.3432 68.5287C55.5526 66.9963 63.6866 60.2165 63.6866 60.2165C63.6866 60.2165 68.9519 55.0225 66.7514 48.902C64.5508 42.7814 49.7706 6.88672 49.7706 6.88672Z" fill="black"></path> </svg> 