<?xml version="1.0" encoding="UTF-8"?> <svg xmlns="http://www.w3.org/2000/svg" width="140" height="211" viewBox="0 0 140 211" fill="none"> <path fill-rule="evenodd" clip-rule="evenodd" d="M70 0C108.66 0 140 31.3405 140 70.0011C140 82.753 136.6 94.7014 130.633 105.006C126.655 111.875 106.444 146.874 70 210.003C33.5561 146.874 13.3452 111.875 9.36711 105.006C3.4 94.7014 0 82.753 0 70.0011C0 31.3405 31.3401 0 70 0ZM70 40.0006C53.4315 40.0006 40 53.4323 40 70.0011C40 86.5699 53.4315 100.002 70 100.002C86.5686 100.002 100 86.5699 100 70.0011C100 53.4323 86.5686 40.0006 70 40.0006Z" fill="black"></path> </svg> 